<svg width="800" height="600" xmlns="http://www.w3.org/2000/svg">
<rect width="100%" height="100%" fill="black" />
<rect x="0" y="0" width="800" height="1455" style="fill:none;stroke:white;stroke-width:1;stroke-opacity:0.5" />
<rect x="0" y="0" width="800" height="1455" style="fill:none;stroke:white;stroke-width:1;stroke-opacity:0.5" />
<rect x="0" y="0" width="800" height="1455" style="fill:none;stroke:white;stroke-width:1;stroke-opacity:0.5" />
<rect x="0" y="0" width="800" height="60" style="fill:none;stroke:white;stroke-width:1;stroke-opacity:0.5" />
<rect x="0" y="0" width="800" height="20" style="fill:none;stroke:white;stroke-width:1;stroke-opacity:0.5" />
<rect x="0" y="20" width="800" height="20" style="fill:none;stroke:white;stroke-width:1;stroke-opacity:0.5" />
<rect x="0" y="40" width="800" height="20" style="fill:none;stroke:white;stroke-width:1;stroke-opacity:0.5" />
<rect x="0" y="40" width="800" height="20" style="fill:none;stroke:white;stroke-width:1;stroke-opacity:0.5" />
<text x="5" y="55" font-family="monospace" font-size="12" fill="white" fill-opacity="0.5">Google</text>
<rect x="0" y="60" width="800" height="1395" style="fill:none;stroke:white;stroke-width:1;stroke-opacity:0.5" />
<rect x="0" y="60" width="800" height="880" style="fill:none;stroke:white;stroke-width:1;stroke-opacity:0.5" />
<rect x="0" y="60" width="800" height="880" style="fill:none;stroke:white;stroke-width:1;stroke-opacity:0.5" />
<rect x="0" y="60" width="800" height="840" style="fill:none;stroke:white;stroke-width:1;stroke-opacity:0.5" />
<rect x="0" y="60" width="800" height="640" style="fill:none;stroke:white;stroke-width:1;stroke-opacity:0.5" />
<rect x="0" y="60" width="800" height="20" style="fill:none;stroke:white;stroke-width:1;stroke-opacity:0.5" />
<rect x="0" y="80" width="800" height="620" style="fill:none;stroke:white;stroke-width:1;stroke-opacity:0.5" />
<rect x="0" y="80" width="800" height="40" style="fill:none;stroke:white;stroke-width:1;stroke-opacity:0.5" />
<rect x="0" y="80" width="800" height="40" style="fill:none;stroke:white;stroke-width:1;stroke-opacity:0.5" />
<rect x="0" y="80" width="800" height="20" style="fill:none;stroke:white;stroke-width:1;stroke-opacity:0.5" />
<rect x="0" y="100" width="800" height="20" style="fill:none;stroke:white;stroke-width:1;stroke-opacity:0.5" />
<rect x="0" y="100" width="800" height="20" style="fill:none;stroke:white;stroke-width:1;stroke-opacity:0.5" />
<text x="5" y="115" font-family="monospace" font-size="12" fill="white" fill-opacity="0.5">Søgning</text>
<rect x="0" y="120" width="800" height="40" style="fill:none;stroke:white;stroke-width:1;stroke-opacity:0.5" />
<rect x="0" y="120" width="800" height="40" style="fill:none;stroke:white;stroke-width:1;stroke-opacity:0.5" />
<rect x="0" y="120" width="800" height="20" style="fill:none;stroke:white;stroke-width:1;stroke-opacity:0.5" />
<rect x="0" y="140" width="800" height="20" style="fill:none;stroke:white;stroke-width:1;stroke-opacity:0.5" />
<rect x="0" y="140" width="800" height="20" style="fill:none;stroke:white;stroke-width:1;stroke-opacity:0.5" />
<text x="5" y="155" font-family="monospace" font-size="12" fill="white" fill-opacity="0.5">Billeder</text>
<rect x="0" y="160" width="800" height="40" style="fill:none;stroke:white;stroke-width:1;stroke-opacity:0.5" />
<rect x="0" y="160" width="800" height="40" style="fill:none;stroke:white;stroke-width:1;stroke-opacity:0.5" />
<rect x="0" y="160" width="800" height="20" style="fill:none;stroke:white;stroke-width:1;stroke-opacity:0.5" />
<rect x="0" y="180" width="800" height="20" style="fill:none;stroke:white;stroke-width:1;stroke-opacity:0.5" />
<rect x="0" y="180" width="800" height="20" style="fill:none;stroke:white;stroke-width:1;stroke-opacity:0.5" />
<text x="5" y="195" font-family="monospace" font-size="12" fill="white" fill-opacity="0.5">Maps</text>
<rect x="0" y="200" width="800" height="40" style="fill:none;stroke:white;stroke-width:1;stroke-opacity:0.5" />
<rect x="0" y="200" width="800" height="40" style="fill:none;stroke:white;stroke-width:1;stroke-opacity:0.5" />
<rect x="0" y="200" width="800" height="20" style="fill:none;stroke:white;stroke-width:1;stroke-opacity:0.5" />
<rect x="0" y="220" width="800" height="20" style="fill:none;stroke:white;stroke-width:1;stroke-opacity:0.5" />
<rect x="0" y="220" width="800" height="20" style="fill:none;stroke:white;stroke-width:1;stroke-opacity:0.5" />
<text x="5" y="235" font-family="monospace" font-size="12" fill="white" fill-opacity="0.5">Play</text>
<rect x="0" y="240" width="800" height="40" style="fill:none;stroke:white;stroke-width:1;stroke-opacity:0.5" />
<rect x="0" y="240" width="800" height="40" style="fill:none;stroke:white;stroke-width:1;stroke-opacity:0.5" />
<rect x="0" y="240" width="800" height="20" style="fill:none;stroke:white;stroke-width:1;stroke-opacity:0.5" />
<rect x="0" y="260" width="800" height="20" style="fill:none;stroke:white;stroke-width:1;stroke-opacity:0.5" />
<rect x="0" y="260" width="800" height="20" style="fill:none;stroke:white;stroke-width:1;stroke-opacity:0.5" />
<text x="5" y="275" font-family="monospace" font-size="12" fill="white" fill-opacity="0.5">YouTube</text>
<rect x="0" y="280" width="800" height="40" style="fill:none;stroke:white;stroke-width:1;stroke-opacity:0.5" />
<rect x="0" y="280" width="800" height="40" style="fill:none;stroke:white;stroke-width:1;stroke-opacity:0.5" />
<rect x="0" y="280" width="800" height="20" style="fill:none;stroke:white;stroke-width:1;stroke-opacity:0.5" />
<rect x="0" y="300" width="800" height="20" style="fill:none;stroke:white;stroke-width:1;stroke-opacity:0.5" />
<rect x="0" y="300" width="800" height="20" style="fill:none;stroke:white;stroke-width:1;stroke-opacity:0.5" />
<text x="5" y="315" font-family="monospace" font-size="12" fill="white" fill-opacity="0.5">Nyheder</text>
<rect x="0" y="320" width="800" height="40" style="fill:none;stroke:white;stroke-width:1;stroke-opacity:0.5" />
<rect x="0" y="320" width="800" height="40" style="fill:none;stroke:white;stroke-width:1;stroke-opacity:0.5" />
<rect x="0" y="320" width="800" height="20" style="fill:none;stroke:white;stroke-width:1;stroke-opacity:0.5" />
<rect x="0" y="340" width="800" height="20" style="fill:none;stroke:white;stroke-width:1;stroke-opacity:0.5" />
<rect x="0" y="340" width="800" height="20" style="fill:none;stroke:white;stroke-width:1;stroke-opacity:0.5" />
<text x="5" y="355" font-family="monospace" font-size="12" fill="white" fill-opacity="0.5">Gmail</text>
<rect x="0" y="360" width="800" height="40" style="fill:none;stroke:white;stroke-width:1;stroke-opacity:0.5" />
<rect x="0" y="360" width="800" height="40" style="fill:none;stroke:white;stroke-width:1;stroke-opacity:0.5" />
<rect x="0" y="360" width="800" height="20" style="fill:none;stroke:white;stroke-width:1;stroke-opacity:0.5" />
<rect x="0" y="380" width="800" height="20" style="fill:none;stroke:white;stroke-width:1;stroke-opacity:0.5" />
<rect x="0" y="380" width="800" height="20" style="fill:none;stroke:white;stroke-width:1;stroke-opacity:0.5" />
<text x="5" y="395" font-family="monospace" font-size="12" fill="white" fill-opacity="0.5">Drev</text>
<rect x="0" y="400" width="800" height="300" style="fill:none;stroke:white;stroke-width:1;stroke-opacity:0.5" />
<rect x="0" y="400" width="800" height="60" style="fill:none;stroke:white;stroke-width:1;stroke-opacity:0.5" />
<rect x="0" y="400" width="800" height="20" style="fill:none;stroke:white;stroke-width:1;stroke-opacity:0.5" />
<rect x="0" y="420" width="800" height="40" style="fill:none;stroke:white;stroke-width:1;stroke-opacity:0.5" />
<rect x="0" y="420" width="800" height="20" style="fill:none;stroke:white;stroke-width:1;stroke-opacity:0.5" />
<rect x="0" y="420" width="800" height="20" style="fill:none;stroke:white;stroke-width:1;stroke-opacity:0.5" />
<text x="5" y="435" font-family="monospace" font-size="12" fill="white" fill-opacity="0.5">Mere</text>
<rect x="0" y="440" width="800" height="20" style="fill:none;stroke:white;stroke-width:1;stroke-opacity:0.5" />
<rect x="0" y="460" width="800" height="240" style="fill:none;stroke:white;stroke-width:1;stroke-opacity:0.5" />
<rect x="0" y="460" width="800" height="240" style="fill:none;stroke:white;stroke-width:1;stroke-opacity:0.5" />
<rect x="0" y="460" width="800" height="200" style="fill:none;stroke:white;stroke-width:1;stroke-opacity:0.5" />
<rect x="0" y="460" width="800" height="20" style="fill:none;stroke:white;stroke-width:1;stroke-opacity:0.5" />
<rect x="0" y="460" width="800" height="20" style="fill:none;stroke:white;stroke-width:1;stroke-opacity:0.5" />
<rect x="0" y="460" width="800" height="20" style="fill:none;stroke:white;stroke-width:1;stroke-opacity:0.5" />
<text x="5" y="475" font-family="monospace" font-size="12" fill="white" fill-opacity="0.5">Kalender</text>
<rect x="0" y="480" width="800" height="20" style="fill:none;stroke:white;stroke-width:1;stroke-opacity:0.5" />
<rect x="0" y="480" width="800" height="20" style="fill:none;stroke:white;stroke-width:1;stroke-opacity:0.5" />
<rect x="0" y="480" width="800" height="20" style="fill:none;stroke:white;stroke-width:1;stroke-opacity:0.5" />
<text x="5" y="495" font-family="monospace" font-size="12" fill="white" fill-opacity="0.5">Oversæt</text>
<rect x="0" y="500" width="800" height="20" style="fill:none;stroke:white;stroke-width:1;stroke-opacity:0.5" />
<rect x="0" y="500" width="800" height="20" style="fill:none;stroke:white;stroke-width:1;stroke-opacity:0.5" />
<rect x="0" y="500" width="800" height="20" style="fill:none;stroke:white;stroke-width:1;stroke-opacity:0.5" />
<text x="5" y="515" font-family="monospace" font-size="12" fill="white" fill-opacity="0.5">Bøger</text>
<rect x="0" y="520" width="800" height="20" style="fill:none;stroke:white;stroke-width:1;stroke-opacity:0.5" />
<rect x="0" y="520" width="800" height="20" style="fill:none;stroke:white;stroke-width:1;stroke-opacity:0.5" />
<rect x="0" y="520" width="800" height="20" style="fill:none;stroke:white;stroke-width:1;stroke-opacity:0.5" />
<text x="5" y="535" font-family="monospace" font-size="12" fill="white" fill-opacity="0.5">Shopping</text>
<rect x="0" y="540" width="800" height="20" style="fill:none;stroke:white;stroke-width:1;stroke-opacity:0.5" />
<rect x="0" y="540" width="800" height="20" style="fill:none;stroke:white;stroke-width:1;stroke-opacity:0.5" />
<rect x="0" y="540" width="800" height="20" style="fill:none;stroke:white;stroke-width:1;stroke-opacity:0.5" />
<text x="5" y="555" font-family="monospace" font-size="12" fill="white" fill-opacity="0.5">Blogger</text>
<rect x="0" y="560" width="800" height="20" style="fill:none;stroke:white;stroke-width:1;stroke-opacity:0.5" />
<rect x="0" y="560" width="800" height="20" style="fill:none;stroke:white;stroke-width:1;stroke-opacity:0.5" />
<rect x="0" y="560" width="800" height="20" style="fill:none;stroke:white;stroke-width:1;stroke-opacity:0.5" />
<text x="5" y="575" font-family="monospace" font-size="12" fill="white" fill-opacity="0.5">Finans</text>
<rect x="0" y="580" width="800" height="20" style="fill:none;stroke:white;stroke-width:1;stroke-opacity:0.5" />
<rect x="0" y="580" width="800" height="20" style="fill:none;stroke:white;stroke-width:1;stroke-opacity:0.5" />
<rect x="0" y="580" width="800" height="20" style="fill:none;stroke:white;stroke-width:1;stroke-opacity:0.5" />
<text x="5" y="595" font-family="monospace" font-size="12" fill="white" fill-opacity="0.5">Fotos</text>
<rect x="0" y="600" width="800" height="20" style="fill:none;stroke:white;stroke-width:1;stroke-opacity:0.5" />
<rect x="0" y="600" width="800" height="20" style="fill:none;stroke:white;stroke-width:1;stroke-opacity:0.5" />
<rect x="0" y="600" width="800" height="20" style="fill:none;stroke:white;stroke-width:1;stroke-opacity:0.5" />
<text x="5" y="615" font-family="monospace" font-size="12" fill="white" fill-opacity="0.5">Docs</text>
<rect x="0" y="620" width="800" height="20" style="fill:none;stroke:white;stroke-width:1;stroke-opacity:0.5" />
<rect x="0" y="620" width="800" height="20" style="fill:none;stroke:white;stroke-width:1;stroke-opacity:0.5" />
<rect x="0" y="640" width="800" height="20" style="fill:none;stroke:white;stroke-width:1;stroke-opacity:0.5" />
<rect x="0" y="640" width="800" height="20" style="fill:none;stroke:white;stroke-width:1;stroke-opacity:0.5" />
<rect x="0" y="640" width="800" height="20" style="fill:none;stroke:white;stroke-width:1;stroke-opacity:0.5" />
<text x="5" y="655" font-family="monospace" font-size="12" fill="white" fill-opacity="0.5">Endnu mere &amp;raquo;</text>
<rect x="0" y="660" width="800" height="20" style="fill:none;stroke:white;stroke-width:1;stroke-opacity:0.5" />
<rect x="0" y="680" width="800" height="20" style="fill:none;stroke:white;stroke-width:1;stroke-opacity:0.5" />
<rect x="0" y="700" width="800" height="200" style="fill:none;stroke:white;stroke-width:1;stroke-opacity:0.5" />
<rect x="0" y="700" width="800" height="20" style="fill:none;stroke:white;stroke-width:1;stroke-opacity:0.5" />
<rect x="0" y="700" width="800" height="20" style="fill:none;stroke:white;stroke-width:1;stroke-opacity:0.5" />
<text x="5" y="715" font-family="monospace" font-size="12" fill="white" fill-opacity="0.5">Account Options</text>
<rect x="0" y="720" width="800" height="20" style="fill:none;stroke:white;stroke-width:1;stroke-opacity:0.5" />
<rect x="0" y="740" width="800" height="160" style="fill:none;stroke:white;stroke-width:1;stroke-opacity:0.5" />
<rect x="0" y="740" width="800" height="40" style="fill:none;stroke:white;stroke-width:1;stroke-opacity:0.5" />
<rect x="0" y="740" width="800" height="40" style="fill:none;stroke:white;stroke-width:1;stroke-opacity:0.5" />
<rect x="0" y="740" width="800" height="20" style="fill:none;stroke:white;stroke-width:1;stroke-opacity:0.5" />
<rect x="0" y="760" width="800" height="20" style="fill:none;stroke:white;stroke-width:1;stroke-opacity:0.5" />
<rect x="0" y="760" width="800" height="20" style="fill:none;stroke:white;stroke-width:1;stroke-opacity:0.5" />
<rect x="0" y="760" width="800" height="20" style="fill:none;stroke:white;stroke-width:1;stroke-opacity:0.5" />
<text x="5" y="775" font-family="monospace" font-size="12" fill="white" fill-opacity="0.5">Log ind</text>
<rect x="0" y="780" width="800" height="20" style="fill:none;stroke:white;stroke-width:1;stroke-opacity:0.5" />
<rect x="0" y="780" width="800" height="20" style="fill:none;stroke:white;stroke-width:1;stroke-opacity:0.5" />
<rect x="0" y="800" width="800" height="100" style="fill:none;stroke:white;stroke-width:1;stroke-opacity:0.5" />
<rect x="0" y="800" width="800" height="40" style="fill:none;stroke:white;stroke-width:1;stroke-opacity:0.5" />
<rect x="0" y="800" width="800" height="20" style="fill:none;stroke:white;stroke-width:1;stroke-opacity:0.5" />
<rect x="0" y="820" width="800" height="20" style="fill:none;stroke:white;stroke-width:1;stroke-opacity:0.5" />
<rect x="0" y="820" width="800" height="20" style="fill:none;stroke:white;stroke-width:1;stroke-opacity:0.5" />
<rect x="0" y="840" width="800" height="60" style="fill:none;stroke:white;stroke-width:1;stroke-opacity:0.5" />
<rect x="0" y="840" width="800" height="60" style="fill:none;stroke:white;stroke-width:1;stroke-opacity:0.5" />
<rect x="0" y="840" width="800" height="60" style="fill:none;stroke:white;stroke-width:1;stroke-opacity:0.5" />
<rect x="0" y="840" width="800" height="20" style="fill:none;stroke:white;stroke-width:1;stroke-opacity:0.5" />
<rect x="0" y="840" width="800" height="20" style="fill:none;stroke:white;stroke-width:1;stroke-opacity:0.5" />
<rect x="0" y="840" width="800" height="20" style="fill:none;stroke:white;stroke-width:1;stroke-opacity:0.5" />
<text x="5" y="855" font-family="monospace" font-size="12" fill="white" fill-opacity="0.5">Søgeindstillinger</text>
<rect x="0" y="860" width="800" height="20" style="fill:none;stroke:white;stroke-width:1;stroke-opacity:0.5" />
<rect x="0" y="860" width="800" height="20" style="fill:none;stroke:white;stroke-width:1;stroke-opacity:0.5" />
<rect x="0" y="880" width="800" height="20" style="fill:none;stroke:white;stroke-width:1;stroke-opacity:0.5" />
<rect x="0" y="880" width="800" height="20" style="fill:none;stroke:white;stroke-width:1;stroke-opacity:0.5" />
<rect x="0" y="880" width="800" height="20" style="fill:none;stroke:white;stroke-width:1;stroke-opacity:0.5" />
<text x="5" y="895" font-family="monospace" font-size="12" fill="white" fill-opacity="0.5">Webhistorik</text>
<rect x="0" y="900" width="800" height="20" style="fill:none;stroke:white;stroke-width:1;stroke-opacity:0.5" />
<rect x="0" y="920" width="800" height="20" style="fill:none;stroke:white;stroke-width:1;stroke-opacity:0.5" />
<rect x="0" y="940" width="800" height="515" style="fill:none;stroke:white;stroke-width:1;stroke-opacity:0.5" />
<rect x="0" y="940" width="800" height="20" style="fill:none;stroke:white;stroke-width:1;stroke-opacity:0.5" />
<rect x="0" y="960" width="800" height="132" style="fill:none;stroke:white;stroke-width:1;stroke-opacity:0.5" />
<rect x="0" y="960" width="272" height="92" style="fill:none;stroke:white;stroke-width:1;stroke-opacity:0.5" />
<rect x="0" y="1052" width="800" height="20" style="fill:none;stroke:white;stroke-width:1;stroke-opacity:0.5" />
<rect x="0" y="1072" width="800" height="20" style="fill:none;stroke:white;stroke-width:1;stroke-opacity:0.5" />
<rect x="0" y="1092" width="800" height="363" style="fill:none;stroke:white;stroke-width:1;stroke-opacity:0.5" />
<rect x="0" y="1092" width="800" height="363" style="fill:none;stroke:white;stroke-width:1;stroke-opacity:0.5" />
<rect x="0" y="1092" width="800" height="363" style="fill:none;stroke:white;stroke-width:1;stroke-opacity:0.5" />
<rect x="0" y="1092" width="25" height="20" style="fill:none;stroke:white;stroke-width:1;stroke-opacity:0.5" />
<rect x="0" y="1092" width="25" height="20" style="fill:none;stroke:white;stroke-width:1;stroke-opacity:0.5" />
<text x="5" y="1107" font-family="monospace" font-size="12" fill="white" fill-opacity="0.5">&amp;nbsp;</text>
<rect x="0" y="1112" width="800" height="343" style="fill:none;stroke:white;stroke-width:1;stroke-opacity:0.5" />
<rect x="0" y="1112" width="800" height="343" style="fill:none;stroke:white;stroke-width:1;stroke-opacity:0.5" />
<rect x="0" y="1112" width="800" height="343" style="fill:none;stroke:white;stroke-width:1;stroke-opacity:0.5" />
<rect x="0" y="1112" width="800" height="343" style="fill:none;stroke:white;stroke-width:1;stroke-opacity:0.5" />
<rect x="0" y="1112" width="800" height="343" style="fill:none;stroke:white;stroke-width:1;stroke-opacity:0.5" />
<rect x="0" y="1112" width="800" height="343" style="fill:none;stroke:white;stroke-width:1;stroke-opacity:0.5" />
<rect x="0" y="1112" width="800" height="23" style="fill:none;stroke:white;stroke-width:1;stroke-opacity:0.5" />
<rect x="0" y="1112" width="800" height="23" style="fill:none;stroke:white;stroke-width:1;stroke-opacity:0.5" />
<rect x="0" y="1112" width="27" height="23" style="fill:none;stroke:white;stroke-width:1;stroke-opacity:0.5" />
<rect x="0" y="1135" width="800" height="20" style="fill:none;stroke:white;stroke-width:1;stroke-opacity:0.5" />
<rect x="0" y="1155" width="800" height="60" style="fill:none;stroke:white;stroke-width:1;stroke-opacity:0.5" />
<rect x="0" y="1155" width="800" height="20" style="fill:none;stroke:white;stroke-width:1;stroke-opacity:0.5" />
<rect x="0" y="1155" width="800" height="20" style="fill:none;stroke:white;stroke-width:1;stroke-opacity:0.5" />
<rect x="0" y="1175" width="800" height="40" style="fill:none;stroke:white;stroke-width:1;stroke-opacity:0.5" />
<rect x="0" y="1175" width="800" height="20" style="fill:none;stroke:white;stroke-width:1;stroke-opacity:0.5" />
<rect x="0" y="1175" width="800" height="20" style="fill:none;stroke:white;stroke-width:1;stroke-opacity:0.5" />
<rect x="0" y="1175" width="800" height="20" style="fill:none;stroke:white;stroke-width:1;stroke-opacity:0.5" />
<rect x="0" y="1195" width="25" height="20" style="fill:none;stroke:white;stroke-width:1;stroke-opacity:0.5" />
<rect x="0" y="1195" width="25" height="20" style="fill:none;stroke:white;stroke-width:1;stroke-opacity:0.5" />
<rect x="0" y="1195" width="25" height="20" style="fill:none;stroke:white;stroke-width:1;stroke-opacity:0.5" />
<text x="5" y="1210" font-family="monospace" font-size="12" fill="white" fill-opacity="0.5">Avanceret søgning</text>
<rect x="0" y="1215" width="800" height="20" style="fill:none;stroke:white;stroke-width:1;stroke-opacity:0.5" />
<rect x="0" y="1235" width="800" height="60" style="fill:none;stroke:white;stroke-width:1;stroke-opacity:0.5" />
<rect x="0" y="1235" width="800" height="20" style="fill:none;stroke:white;stroke-width:1;stroke-opacity:0.5" />
<rect x="0" y="1255" width="800" height="40" style="fill:none;stroke:white;stroke-width:1;stroke-opacity:0.5" />
<rect x="0" y="1255" width="800" height="40" style="fill:none;stroke:white;stroke-width:1;stroke-opacity:0.5" />
<rect x="0" y="1255" width="800" height="20" style="fill:none;stroke:white;stroke-width:1;stroke-opacity:0.5" />
<text x="5" y="1270" font-family="monospace" font-size="12" fill="white" fill-opacity="0.5">Google er tilgængelig på:</text>
<rect x="0" y="1275" width="800" height="20" style="fill:none;stroke:white;stroke-width:1;stroke-opacity:0.5" />
<rect x="0" y="1275" width="800" height="20" style="fill:none;stroke:white;stroke-width:1;stroke-opacity:0.5" />
<text x="5" y="1290" font-family="monospace" font-size="12" fill="white" fill-opacity="0.5">Føroyskt</text>
<rect x="0" y="1295" width="800" height="160" style="fill:none;stroke:white;stroke-width:1;stroke-opacity:0.5" />
<rect x="0" y="1295" width="800" height="80" style="fill:none;stroke:white;stroke-width:1;stroke-opacity:0.5" />
<rect x="0" y="1295" width="800" height="80" style="fill:none;stroke:white;stroke-width:1;stroke-opacity:0.5" />
<rect x="0" y="1295" width="800" height="20" style="fill:none;stroke:white;stroke-width:1;stroke-opacity:0.5" />
<rect x="0" y="1295" width="800" height="20" style="fill:none;stroke:white;stroke-width:1;stroke-opacity:0.5" />
<text x="5" y="1310" font-family="monospace" font-size="12" fill="white" fill-opacity="0.5">Annoncering</text>
<rect x="0" y="1315" width="800" height="20" style="fill:none;stroke:white;stroke-width:1;stroke-opacity:0.5" />
<rect x="0" y="1315" width="800" height="20" style="fill:none;stroke:white;stroke-width:1;stroke-opacity:0.5" />
<text x="5" y="1330" font-family="monospace" font-size="12" fill="white" fill-opacity="0.5">Virksomhedsløsninger</text>
<rect x="0" y="1335" width="800" height="20" style="fill:none;stroke:white;stroke-width:1;stroke-opacity:0.5" />
<rect x="0" y="1335" width="800" height="20" style="fill:none;stroke:white;stroke-width:1;stroke-opacity:0.5" />
<text x="5" y="1350" font-family="monospace" font-size="12" fill="white" fill-opacity="0.5">Alt om Google</text>
<rect x="0" y="1355" width="800" height="20" style="fill:none;stroke:white;stroke-width:1;stroke-opacity:0.5" />
<rect x="0" y="1355" width="800" height="20" style="fill:none;stroke:white;stroke-width:1;stroke-opacity:0.5" />
<text x="5" y="1370" font-family="monospace" font-size="12" fill="white" fill-opacity="0.5">Google.dk</text>
<rect x="0" y="1375" width="800" height="80" style="fill:none;stroke:white;stroke-width:1;stroke-opacity:0.5" />
<rect x="0" y="1375" width="800" height="20" style="fill:none;stroke:white;stroke-width:1;stroke-opacity:0.5" />
<text x="5" y="1390" font-family="monospace" font-size="12" fill="white" fill-opacity="0.5">&amp;copy; 2025 -</text>
<rect x="0" y="1395" width="800" height="20" style="fill:none;stroke:white;stroke-width:1;stroke-opacity:0.5" />
<rect x="0" y="1395" width="800" height="20" style="fill:none;stroke:white;stroke-width:1;stroke-opacity:0.5" />
<text x="5" y="1410" font-family="monospace" font-size="12" fill="white" fill-opacity="0.5">Privatliv</text>
<rect x="0" y="1415" width="800" height="20" style="fill:none;stroke:white;stroke-width:1;stroke-opacity:0.5" />
<text x="5" y="1430" font-family="monospace" font-size="12" fill="white" fill-opacity="0.5">-</text>
<rect x="0" y="1435" width="800" height="20" style="fill:none;stroke:white;stroke-width:1;stroke-opacity:0.5" />
<rect x="0" y="1435" width="800" height="20" style="fill:none;stroke:white;stroke-width:1;stroke-opacity:0.5" />
<text x="5" y="1450" font-family="monospace" font-size="12" fill="white" fill-opacity="0.5">Vilkår</text>
</svg>
